# xmcd
#
# Track frame offsets: 
#        150
#        16600
#        39000
#        53075
#        72650
#        87775
#        105175
#        118175
#        132600
#        149075
#        165475
#        184250
#
# Disc length: 2713 seconds
#
# Revision: 0
# Processed by: cddbd v1.5.2PL0 Copyright (c) Steve Scherf et al.
# Submitted via: ExactAudioCopy v1.2
#
DISCID=9f0a970c
DTITLE=许岚岚 - 驼铃
DYEAR=2013
DGENRE=Pop
TTITLE0=父老乡亲
TTITLE1=驼铃
TTITLE2=军民鱼水情
TTITLE3=愿亲人养好伤
TTITLE4=毛主席的话儿记心上
TTITLE5=一道道水来一道道山
TTITLE6=在那桃花盛开的地方
TTITLE7=人说山西好风光
TTITLE8=二月里来
TTITLE9=说句心里话
TTITLE10=枉凝眉
TTITLE11=康定情歌
EXTD=
EXTT0=
EXTT1=
EXTT2=
EXTT3=
EXTT4=
EXTT5=
EXTT6=
EXTT7=
EXTT8=
EXTT9=
EXTT10=
EXTT11=
PLAYORDER=
